<svg width="15" height="15" viewBox="0 0 15 15" fill="none" xmlns="http://www.w3.org/2000/svg">
<path fill-rule="evenodd" clip-rule="evenodd" d="M7.50012 0C11.6423 0 15.0002 3.35793 15.0002 7.50012C15.0002 11.6423 11.6423 15.0002 7.50012 15.0002C3.35793 15.0002 0 11.6423 0 7.50012C0 3.35793 3.35793 0 7.50012 0ZM7.974 11.7315V7.89995H9.25997L9.45255 6.40673H7.97375V5.45325C7.97375 5.02087 8.09377 4.7264 8.71377 4.7264L9.50449 4.72615V3.39048C9.36782 3.37234 8.89841 3.33159 8.35221 3.33159C7.21211 3.33159 6.43158 4.02738 6.43158 5.3054V6.40648H5.14213V7.8997H6.43158V11.7313H7.97375L7.974 11.7315Z" fill="#002337"/>
</svg>
