<svg width="15" height="15" viewBox="0 0 15 15" fill="none" xmlns="http://www.w3.org/2000/svg">
<path fill-rule="evenodd" clip-rule="evenodd" d="M7.50012 0C11.6423 0 15.0002 3.35793 15.0002 7.50012C15.0002 11.6423 11.6423 15.0002 7.50012 15.0002C3.35793 15.0002 0 11.6423 0 7.50012C0 3.35793 3.35793 0 7.50012 0ZM7.49887 3.75826C6.48277 3.75826 6.35529 3.76248 5.95621 3.78087C5.55787 3.79901 5.28577 3.86238 5.04795 3.95482C4.80194 4.05049 4.59321 4.17847 4.38522 4.38646C4.17722 4.59445 4.04925 4.80319 3.95358 5.0492C3.86114 5.28726 3.79777 5.55911 3.77963 5.95745C3.76149 6.35654 3.75702 6.48402 3.75702 7.50012C3.75702 8.51622 3.76124 8.6437 3.77963 9.04278C3.79777 9.44112 3.86114 9.71323 3.95358 9.95104C4.04925 10.197 4.17722 10.4058 4.38522 10.6138C4.59321 10.8218 4.80194 10.9497 5.04795 11.0454C5.28601 11.1379 5.55787 11.2012 5.95621 11.2194C6.35529 11.2375 6.48277 11.242 7.49887 11.242C8.51498 11.242 8.64245 11.2378 9.04154 11.2194C9.43988 11.2012 9.71198 11.1379 9.94979 11.0454C10.1958 10.9497 10.4045 10.8218 10.6125 10.6138C10.8205 10.4058 10.9485 10.197 11.0442 9.95104C11.1366 9.71298 11.2 9.44112 11.2181 9.04278C11.2363 8.6437 11.2407 8.51622 11.2407 7.50012C11.2407 6.48402 11.2365 6.35654 11.2181 5.95745C11.2 5.55911 11.1366 5.28701 11.0442 5.0492C10.9485 4.80319 10.8205 4.59445 10.6125 4.38646C10.4045 4.17847 10.1958 4.05049 9.94979 3.95482C9.71173 3.86238 9.43988 3.79901 9.04154 3.78087C8.64245 3.76273 8.51498 3.75826 7.49887 3.75826ZM7.46185 5.34391C6.25043 5.34391 5.26837 6.32597 5.26837 7.53714C5.26837 8.74856 6.25043 9.73062 7.46185 9.73062C8.67327 9.73062 9.65508 8.74856 9.65508 7.53714C9.65508 6.32572 8.67302 5.34391 7.46185 5.34391ZM7.46185 8.86983C6.72605 8.86983 6.12941 8.27319 6.12941 7.53739C6.12941 6.80135 6.72605 6.20471 7.46185 6.20471C8.19789 6.20471 8.79453 6.80135 8.79453 7.53739C8.79453 8.27319 8.19789 8.86983 7.46185 8.86983ZM10.283 5.25719C10.283 5.55588 10.0407 5.79817 9.74205 5.79817C9.44311 5.79817 9.20107 5.55613 9.20107 5.25719C9.20107 4.95825 9.44311 4.71621 9.74205 4.71621C10.0407 4.71621 10.283 4.9585 10.283 5.25719Z" fill="#002337"/>
</svg>
