<svg width="15" height="15" viewBox="0 0 15 15" fill="none" xmlns="http://www.w3.org/2000/svg">
<path fill-rule="evenodd" clip-rule="evenodd" d="M7.50012 0C11.6423 0 15.0002 3.35793 15.0002 7.50012C15.0002 11.6423 11.6423 15.0002 7.50012 15.0002C3.35793 15.0002 0 11.6423 0 7.50012C0 3.35793 3.35793 0 7.50012 0ZM3.52865 7.04413C5.65354 6.11848 7.07022 5.50817 7.77918 5.2132C9.80343 4.3713 10.2239 4.22494 10.498 4.22021C10.5584 4.21922 10.693 4.23413 10.7805 4.30495C10.8543 4.36484 10.8745 4.4456 10.8841 4.50226C10.8938 4.55891 10.906 4.68813 10.8963 4.78927C10.7867 5.9418 10.3119 8.73862 10.0706 10.0296C9.96843 10.5758 9.76715 10.7589 9.57258 10.7768C9.14939 10.8158 8.82783 10.497 8.41806 10.2284C7.77644 9.8079 7.41414 9.54599 6.7914 9.13572C6.07176 8.66159 6.53819 8.40092 6.94846 7.97499C7.05581 7.86342 8.92077 6.16718 8.95681 6.01336C8.96128 5.99423 8.9655 5.92241 8.92276 5.88439C8.88027 5.84637 8.81715 5.85954 8.77193 5.86973C8.70757 5.88439 7.68276 6.5618 5.69752 7.90169C5.40653 8.10148 5.14313 8.19889 4.90706 8.19367C4.64688 8.18796 4.14616 8.04656 3.77416 7.92554C3.31767 7.77719 2.95487 7.69867 2.98643 7.44669C3.00283 7.31549 3.18374 7.1813 3.52865 7.04388V7.04413Z" fill="#002337"/>
</svg>
