<svg width="15" height="19" viewBox="0 0 15 19" fill="none" xmlns="http://www.w3.org/2000/svg">
<path d="M0.515971 0.514274C0.834405 0.196736 1.27373 0 1.75732 0H9.62594C9.78837 0 9.94907 0.0318032 10.0982 0.0936837C10.244 0.154085 10.3788 0.243578 10.4927 0.360189L14.6455 4.59987C14.7575 4.71426 14.847 4.84912 14.9078 4.99655C14.9676 5.14102 15 5.29732 15 5.45757V17.2479C15 17.7304 14.8025 18.1685 14.4843 18.4858C14.1658 18.8033 13.7265 19 13.2429 19H1.75707C1.27324 19 0.83391 18.8031 0.515724 18.4858C0.19729 18.1682 0 17.7301 0 17.2479V1.75213C0 1.26966 0.197538 0.831566 0.515724 0.514274H0.515971ZM4.4598 13.5787V13.579H10.5404V13.5787C10.6524 13.5787 10.7541 13.6241 10.8275 13.6973C10.9009 13.7705 10.9464 13.8718 10.9464 13.9835C10.9464 14.0952 10.9009 14.1965 10.8275 14.2698C10.7543 14.3427 10.6527 14.3881 10.5404 14.3881H4.4598V14.3883C4.3478 14.3883 4.24619 14.343 4.17276 14.2698C4.09934 14.1965 4.05385 14.0952 4.05385 13.9835H4.05409C4.05409 13.8716 4.09958 13.7705 4.17276 13.6973C4.24619 13.6241 4.34756 13.5787 4.4598 13.5787ZM7.21321 5.9001C7.28664 5.82688 7.38825 5.78152 7.50025 5.78152C7.61224 5.78152 7.71385 5.82688 7.78728 5.9001C7.86071 5.97332 7.9062 6.07465 7.9062 6.18633V10.9852L9.91594 8.98131C9.9953 8.90242 10.0991 8.86273 10.203 8.86273C10.3066 8.86273 10.4104 8.90217 10.4898 8.98131L10.49 8.98156C10.5691 9.0607 10.6089 9.16399 10.6089 9.26754C10.6089 9.37108 10.5694 9.47463 10.49 9.55377L7.78753 12.2487H7.78728C7.70792 12.3275 7.60433 12.3672 7.50049 12.3672C7.39666 12.3672 7.29282 12.3278 7.21346 12.2487L4.51098 9.55377C4.43162 9.47463 4.39206 9.37108 4.39206 9.26754C4.39206 9.16399 4.43162 9.06045 4.51098 8.98131L4.51147 8.98106C4.598 8.89626 4.69764 8.85237 4.799 8.85237C4.89839 8.85237 4.99728 8.89453 5.0848 8.98131H5.08505L7.09454 10.9852V6.18633C7.09454 6.07465 7.14003 5.97332 7.21346 5.9001H7.21321ZM9.45906 0.809378H1.75732C1.49253 0.809378 1.25593 0.91317 1.08609 1.08254C0.915991 1.25216 0.812154 1.48785 0.812154 1.75189V17.2477C0.812154 17.5117 0.916238 17.7476 1.08609 17.917C1.25618 18.0866 1.49253 18.1902 1.75732 18.1902H13.2432C13.508 18.1902 13.7446 18.0864 13.9144 17.917C14.0845 17.7474 14.1883 17.5117 14.1883 17.2477V5.52512H10.8782C10.488 5.52512 10.133 5.36586 9.87589 5.10921C9.61852 4.85257 9.45881 4.49879 9.45881 4.10976V0.808885L9.45906 0.809378ZM13.6254 4.71599L10.271 1.2916V4.11025C10.271 4.2811 10.3372 4.43272 10.4463 4.5412C10.5553 4.64992 10.7071 4.71599 10.8784 4.71599H13.6254Z" fill="#656565"/>
</svg>
