<svg width="15" height="15" viewBox="0 0 15 15" fill="none" xmlns="http://www.w3.org/2000/svg">
<path fill-rule="evenodd" clip-rule="evenodd" d="M7.50012 0C11.6423 0 15.0002 3.35793 15.0002 7.50012C15.0002 11.6423 11.6423 15.0002 7.50012 15.0002C3.35793 15.0002 0 11.6423 0 7.50012C0 3.35793 3.35793 0 7.50012 0ZM7.85745 10.4113C4.91923 10.4113 3.24362 8.39719 3.1738 5.04572H4.64539C4.69385 7.50558 5.77853 8.54778 6.63783 8.76248V5.04572H8.0237V7.16738C8.87231 7.07593 9.76367 6.10928 10.0646 5.04572H11.4505C11.2194 6.35629 10.2527 7.32294 9.56512 7.72053C10.2525 8.04283 11.3538 8.88598 11.7728 10.4113H10.2472C9.91947 9.39093 9.10341 8.6012 8.0237 8.49385V10.4113H7.85721H7.85745Z" fill="#002337"/>
</svg>
